<?xml version="1.0" standalone="no"?>
<!DOCTYPE svg PUBLIC "-//W3C//DTD SVG 20010904//EN"
 "http://www.w3.org/TR/2001/REC-SVG-20010904/DTD/svg10.dtd">
<svg version="1.0" xmlns="http://www.w3.org/2000/svg"
 width="876.000000pt" height="876.000000pt" viewBox="0 0 876.000000 876.000000"
 preserveAspectRatio="xMidYMid meet">
<metadata>
Created by potrace 1.14, written by Peter Selinger 2001-2017
</metadata>
<g transform="translate(0.000000,876.000000) scale(0.100000,-0.100000)"
fill="#000000" stroke="none">
<path d="M4366 8718 c3 -4 -4 -8 -15 -8 -11 0 -23 -5 -26 -10 -4 -6 -10 -8
-15 -5 -5 3 -12 0 -16 -6 -5 -8 -3 -9 6 -4 9 5 11 4 6 -3 -4 -7 -14 -12 -22
-12 -10 0 -12 -5 -8 -12 5 -9 2 -9 -9 1 -15 12 -21 9 -18 -11 0 -4 -7 -4 -16
-1 -12 5 -14 3 -8 -8 7 -11 5 -11 -10 1 -10 8 -16 10 -12 4 4 -7 -1 -18 -10
-25 -14 -12 -16 -12 -8 0 5 8 -7 4 -25 -9 -18 -13 -30 -18 -25 -10 6 9 4 11
-4 6 -7 -5 -10 -14 -7 -22 3 -8 1 -14 -3 -14 -5 0 -11 6 -14 13 -3 8 -11 5
-24 -10 -22 -25 -38 -31 -28 -10 4 6 1 5 -7 -4 -7 -9 -19 -14 -27 -11 -8 3
-11 0 -7 -7 4 -6 2 -12 -3 -12 -6 -1 -15 -2 -19 -3 -5 0 -16 -9 -26 -18 -20
-21 -50 -24 -41 -5 4 6 -2 1 -13 -12 -15 -18 -21 -21 -25 -10 -4 10 -6 10 -6
2 -1 -7 -10 -13 -22 -13 -11 0 -17 -4 -14 -10 9 -14 -9 -12 -24 3 -7 6 -12 8
-11 2 5 -24 -1 -37 -15 -31 -8 3 -15 1 -15 -5 0 -6 -5 -7 -12 -3 -7 5 -9 2 -5
-9 4 -11 2 -14 -8 -10 -8 3 -12 10 -9 17 3 6 -1 3 -10 -8 -8 -10 -19 -15 -25
-11 -6 3 -11 1 -11 -6 0 -7 -3 -9 -7 -6 -3 4 -12 -1 -20 -11 -9 -10 -11 -11
-7 -2 7 13 5 13 -9 2 -9 -8 -22 -10 -29 -6 -9 5 -8 2 2 -12 8 -10 10 -16 6
-12 -5 4 -16 2 -24 -5 -13 -9 -14 -9 -8 1 4 6 2 12 -3 12 -6 0 -11 -5 -11 -11
0 -5 -4 -7 -10 -4 -5 3 -10 1 -10 -6 0 -7 -10 -9 -24 -7 -17 3 -23 1 -19 -8 3
-8 -4 -11 -21 -10 -14 2 -26 -1 -26 -6 0 -6 -7 -7 -16 -4 -8 3 -12 2 -9 -4 3
-6 0 -10 -9 -10 -8 0 -17 -6 -19 -12 -4 -9 -6 -9 -6 1 -1 11 -5 10 -17 -5 -8
-10 -12 -12 -8 -4 7 13 5 13 -9 1 -9 -7 -17 -10 -17 -7 0 4 -6 1 -14 -6 -8 -7
-11 -17 -8 -23 3 -5 -3 -3 -13 5 -14 11 -19 12 -22 2 -3 -6 -9 -10 -14 -6 -5
3 -9 0 -9 -6 0 -7 -7 -9 -16 -6 -10 4 -13 2 -8 -6 5 -8 2 -9 -9 -5 -10 3 -17
2 -17 -4 0 -6 -4 -8 -9 -5 -5 3 -12 -1 -15 -10 -5 -13 -9 -14 -21 -4 -12 10
-15 9 -15 -6 0 -16 -2 -17 -10 -4 -6 10 -10 11 -10 3 0 -7 -9 -13 -20 -13 -11
0 -20 -6 -20 -12 0 -9 -4 -8 -10 2 -8 13 -10 12 -10 -4 0 -11 -3 -16 -7 -13
-3 4 -12 2 -18 -3 -7 -6 -24 -11 -39 -12 -14 -1 -26 -6 -26 -11 0 -5 -7 -7
-15 -3 -8 3 -19 -3 -25 -12 -8 -12 -13 -13 -16 -5 -4 9 -13 5 -30 -11 -14 -12
-35 -22 -47 -21 -12 1 -30 -7 -41 -17 -20 -18 -21 -18 -28 -1 -6 17 -7 17 -7
1 -1 -10 -5 -19 -11 -19 -20 -3 -25 -4 -39 -13 -11 -7 -12 -6 -6 5 5 8 0 7
-11 -3 -16 -14 -23 -15 -33 -5 -10 9 -11 8 -5 -6 5 -13 2 -16 -10 -11 -9 4
-16 1 -16 -6 0 -9 -4 -9 -17 1 -12 10 -15 10 -9 1 5 -8 -2 -14 -24 -18 -17 -4
-33 -11 -36 -15 -3 -5 -14 -9 -25 -9 -11 0 -17 -4 -14 -10 3 -6 -1 -7 -10 -4
-8 4 -21 1 -29 -5 -7 -6 -16 -8 -19 -4 -4 3 -7 1 -7 -5 0 -7 -12 -12 -26 -12
-14 0 -22 -4 -19 -10 3 -5 0 -7 -8 -4 -8 3 -17 -2 -20 -10 -5 -13 -12 -14 -32
-6 -22 8 -30 6 -50 -16 -15 -16 -26 -21 -30 -14 -5 8 -12 7 -23 -3 -10 -8 -25
-13 -35 -12 -13 3 -15 0 -8 -8 7 -9 2 -12 -15 -13 -15 -1 -22 2 -18 10 3 6 -1
3 -9 -6 -8 -10 -17 -14 -21 -10 -4 4 -12 0 -16 -9 -7 -11 -18 -15 -36 -11 -20
4 -25 2 -19 -8 6 -9 4 -11 -5 -5 -8 5 -18 1 -27 -10 -8 -12 -13 -14 -13 -5 0
10 -5 8 -19 -4 -11 -10 -24 -15 -30 -12 -5 4 -13 1 -16 -5 -4 -5 -13 -8 -21
-5 -9 3 -14 -1 -14 -12 0 -13 -2 -14 -9 -4 -7 11 -11 11 -24 -2 -17 -18 -32
-21 -22 -6 3 6 -1 7 -9 4 -9 -3 -16 -10 -16 -14 0 -5 -11 -7 -25 -6 -14 2 -30
-3 -36 -10 -6 -8 -16 -11 -22 -7 -6 4 -8 0 -5 -9 5 -12 0 -14 -24 -12 -16 2
-35 7 -41 11 -7 4 -5 -2 3 -12 8 -10 10 -16 3 -12 -14 9 -45 -2 -37 -14 3 -5
0 -9 -5 -9 -6 0 -11 6 -11 13 0 7 -5 5 -11 -5 -6 -11 -16 -15 -26 -11 -11 4
-14 3 -9 -5 4 -8 2 -10 -7 -6 -8 3 -18 0 -22 -6 -6 -9 -9 -9 -15 0 -5 9 -11 8
-21 -2 -8 -7 -21 -13 -29 -13 -8 0 -14 -6 -12 -14 3 -12 0 -12 -12 -1 -9 7
-16 8 -16 2 0 -6 -11 -9 -25 -8 -13 2 -22 -1 -19 -5 3 -5 -2 -9 -11 -9 -10 0
-13 -5 -9 -12 5 -8 0 -7 -11 2 -11 9 -16 10 -11 3 4 -8 1 -13 -9 -13 -10 0
-14 5 -10 13 4 6 0 4 -9 -7 -8 -10 -20 -15 -27 -10 -8 5 -10 3 -5 -5 5 -8 3
-12 -5 -10 -25 3 -40 -1 -35 -9 3 -5 -1 -9 -9 -9 -8 0 -12 3 -10 7 2 4 -2 7
-10 7 -8 0 -13 -3 -10 -5 6 -7 -15 -32 -27 -32 -5 0 -6 5 -2 12 4 7 3 8 -4 4
-7 -4 -12 -15 -12 -24 0 -13 -2 -14 -9 -3 -6 10 -10 10 -16 1 -4 -6 -14 -9
-22 -5 -13 4 -14 3 -4 -9 11 -13 9 -15 -8 -11 -12 2 -19 0 -16 -6 4 -5 1 -9
-4 -9 -6 0 -11 -7 -11 -16 0 -10 -6 -14 -15 -10 -8 3 -14 2 -14 -2 4 -23 -2
-42 -11 -37 -6 4 -7 11 -4 17 4 7 2 8 -5 4 -6 -4 -11 -13 -10 -19 3 -25 -1
-38 -11 -32 -5 3 -7 0 -4 -8 3 -8 0 -18 -7 -23 -8 -5 -10 -3 -4 6 5 9 4 11 -4
6 -9 -6 -9 -11 1 -24 10 -12 10 -14 1 -8 -8 4 -13 2 -13 -7 0 -8 -7 -27 -14
-43 -8 -15 -13 -31 -10 -36 3 -4 0 -8 -5 -8 -6 0 -11 -7 -11 -15 0 -8 6 -15
13 -15 7 0 8 -3 2 -8 -14 -10 -14 -105 -1 -114 7 -5 7 -8 -2 -8 -9 0 -10 -5
-3 -19 6 -10 7 -22 3 -25 -12 -12 -10 -66 2 -66 7 0 7 -3 1 -8 -13 -9 -15
-132 -3 -132 5 0 6 -6 1 -12 -10 -18 -11 -148 0 -148 4 0 5 -6 0 -12 -10 -17
-11 -48 -2 -74 4 -12 5 -25 1 -29 -12 -11 -10 -65 2 -65 7 0 7 -3 1 -8 -14
-10 -14 -105 -1 -114 7 -5 7 -8 -2 -8 -9 0 -10 -5 -3 -19 6 -10 7 -22 3 -25
-12 -12 -10 -66 2 -66 7 0 7 -3 1 -8 -14 -10 -14 -105 -1 -114 7 -5 7 -8 -2
-8 -9 0 -10 -5 -3 -19 6 -10 7 -22 3 -25 -12 -12 -10 -66 2 -66 7 0 7 -3 1 -8
-13 -9 -15 -132 -3 -132 5 0 6 -6 1 -12 -10 -18 -11 -148 0 -148 4 0 5 -6 0
-12 -10 -17 -11 -48 -2 -74 4 -12 5 -25 1 -29 -12 -11 -10 -65 2 -65 7 0 7 -3
1 -8 -14 -10 -14 -105 -1 -114 7 -5 7 -8 -2 -8 -9 0 -10 -5 -2 -19 6 -12 6
-22 1 -25 -8 -5 -8 -60 -1 -91 1 -5 1 -12 0 -15 -6 -16 -5 -48 2 -44 8 5 9 0
12 -51 0 -16 5 -36 10 -44 6 -9 5 -12 -1 -8 -11 7 -11 -162 1 -181 4 -7 5 -16
2 -19 -3 -3 -2 -13 3 -22 5 -9 5 -25 1 -36 -5 -13 -2 -27 9 -39 9 -11 11 -17
5 -13 -18 11 -13 -125 5 -141 9 -7 12 -12 6 -11 -22 3 -26 -2 -13 -14 8 -8 13
-35 12 -70 -1 -31 2 -54 7 -51 5 3 7 -9 5 -25 -2 -17 -1 -31 3 -31 3 0 6 -16
6 -35 0 -19 -4 -35 -8 -35 -5 0 -5 -6 0 -12 4 -7 6 -24 4 -37 -2 -17 1 -21 11
-15 9 5 9 2 -2 -11 -9 -11 -10 -16 -2 -11 9 5 12 -9 12 -58 0 -36 4 -66 9 -66
4 0 9 -26 10 -57 0 -33 6 -60 13 -65 10 -6 9 -8 -2 -8 -10 0 -11 -3 -4 -8 6
-4 11 -24 12 -44 1 -56 1 -60 10 -54 5 3 8 -11 7 -30 -1 -18 2 -34 6 -34 4 0
6 -9 4 -20 -2 -11 0 -20 4 -20 4 0 8 -15 8 -32 1 -74 3 -89 11 -84 5 3 9 -1 9
-9 0 -8 -5 -15 -10 -15 -5 0 -4 -7 3 -15 7 -8 10 -26 8 -39 -3 -14 -1 -24 5
-23 5 1 11 -6 12 -15 2 -10 -2 -18 -8 -18 -8 0 -7 -4 1 -12 7 -7 12 -20 12
-30 0 -10 5 -18 10 -18 7 0 7 -6 1 -19 -8 -15 -7 -20 5 -25 8 -3 12 -10 9 -16
-3 -5 -3 -16 2 -22 11 -17 31 -98 23 -93 -3 2 -6 -5 -6 -15 0 -10 5 -16 10
-13 5 4 7 -1 3 -11 -4 -10 -3 -15 3 -11 6 3 11 0 12 -7 0 -7 2 -17 2 -23 1 -5
5 -15 8 -21 4 -6 5 -26 3 -45 -3 -24 -2 -30 5 -19 8 12 10 10 10 -8 0 -16 4
-21 12 -16 10 6 10 5 1 -8 -7 -8 -10 -18 -6 -21 3 -4 1 -7 -6 -7 -7 0 -9 -4
-6 -10 3 -5 0 -10 -7 -10 -10 0 -9 -3 2 -11 12 -9 10 -10 -8 -6 -19 5 -21 3
-11 -9 8 -10 8 -18 1 -27 -7 -8 -7 -18 -2 -27 5 -8 6 -19 2 -25 -11 -17 -11
-35 0 -35 7 0 7 -5 1 -12 -11 -15 -11 -28 0 -45 5 -7 4 -13 -2 -13 -10 0 -9
-25 2 -36 3 -4 3 -14 -2 -23 -9 -19 -8 -32 2 -48 5 -7 4 -13 -2 -13 -8 0 -8
-20 -1 -40 1 -3 1 -9 0 -15 -8 -38 -8 -45 1 -45 6 0 7 -6 2 -12 -11 -18 -10
-32 2 -40 7 -5 7 -8 0 -8 -12 0 -13 -49 -2 -67 5 -7 4 -13 -2 -13 -8 0 -8 -20
-1 -40 1 -3 1 -9 0 -15 -8 -38 -8 -45 1 -45 6 0 7 -4 4 -10 -13 -21 -14 -50
-1 -50 8 0 11 -10 8 -31 -4 -24 -2 -30 8 -24 9 6 11 4 4 -6 -11 -18 -12 -102
-1 -110 5 -3 9 -20 9 -37 1 -18 5 -32 10 -32 4 0 8 -13 8 -29 0 -17 5 -33 10
-36 7 -4 7 -13 0 -26 -10 -18 -6 -24 14 -20 5 1 4 -4 -3 -12 -9 -12 -8 -16 5
-21 14 -5 14 -9 3 -23 -10 -12 -10 -14 -1 -9 8 5 12 -1 13 -21 1 -15 1 -31 0
-35 0 -5 3 -8 9 -8 5 0 10 -12 10 -26 0 -17 4 -23 12 -18 10 5 10 4 0 -7 -10
-11 -8 -17 10 -32 13 -10 17 -16 11 -12 -8 4 -13 0 -13 -10 0 -9 4 -14 8 -11
4 2 14 1 22 -5 10 -6 11 -9 3 -9 -7 0 -13 -5 -13 -11 0 -5 5 -7 12 -3 8 5 9 2
5 -9 -4 -10 -2 -16 5 -14 6 1 15 -9 19 -23 4 -14 8 -20 8 -15 1 6 6 2 12 -8 5
-9 7 -22 4 -27 -3 -6 -2 -10 2 -10 5 0 18 -7 29 -16 10 -8 14 -13 8 -10 -6 3
-11 -1 -11 -8 0 -9 7 -12 15 -8 11 4 14 1 9 -11 -3 -9 -3 -16 1 -16 20 3 31
-3 37 -21 4 -11 11 -18 16 -15 5 4 9 -1 9 -11 0 -12 6 -15 21 -11 16 4 18 3 8
-9 -9 -11 -8 -14 7 -14 19 -1 77 -29 61 -30 -5 0 -2 -7 7 -15 17 -17 30 -20
21 -5 -3 5 -1 10 6 10 7 0 9 -8 6 -21 -4 -16 -3 -18 9 -8 9 7 14 8 14 1 0 -6
9 -14 20 -17 11 -3 20 -14 20 -23 0 -15 2 -15 11 -2 8 11 12 12 16 3 2 -7 13
-13 24 -13 10 0 19 -4 19 -10 0 -5 7 -7 15 -4 8 4 15 1 15 -5 0 -6 6 -8 14 -5
8 3 17 1 21 -5 4 -8 13 -8 28 0 l22 12 -20 -23 -20 -23 24 14 c19 11 25 11 28
1 4 -9 9 -10 17 -2 10 7 22 2 45 -20 17 -17 29 -35 26 -41 -4 -5 -3 -9 2 -8
26 4 53 -3 51 -14 -2 -6 5 -11 14 -11 10 1 15 -2 12 -7 -3 -5 0 -9 6 -9 6 0 8
-6 4 -12 -5 -10 -4 -10 6 -1 14 13 21 9 68 -38 25 -25 67 -45 84 -41 4 1 4 -6
1 -15 -5 -12 -2 -15 10 -10 11 4 17 1 17 -8 0 -8 9 -15 21 -15 11 0 17 -4 14
-10 -3 -5 1 -10 10 -10 10 0 13 5 9 12 -4 7 -3 8 4 4 6 -4 9 -12 6 -19 -2 -7
4 -22 16 -32 11 -10 20 -15 20 -10 0 4 8 1 17 -6 11 -10 14 -10 9 -1 -4 6 -2
12 3 12 6 0 11 -6 11 -14 0 -7 8 -20 17 -27 10 -8 14 -9 10 -2 -4 6 -3 14 3
18 5 3 10 -3 10 -15 0 -12 4 -19 9 -16 12 8 52 -29 43 -40 -4 -4 1 -2 11 5 11
9 17 10 17 2 0 -6 7 -11 16 -11 10 0 14 -6 11 -14 -4 -10 1 -13 18 -11 18 1
26 -4 31 -19 7 -21 7 -21 15 -1 6 17 8 17 8 3 1 -11 9 -18 22 -18 14 0 19 -5
16 -14 -4 -10 -1 -13 9 -9 8 3 22 -3 30 -13 9 -11 12 -12 9 -4 -4 8 5 1 19
-17 19 -23 32 -30 48 -25 16 4 20 2 15 -10 -4 -12 -1 -14 14 -11 11 3 19 0 19
-7 0 -10 3 -10 15 0 13 11 14 10 8 -5 -5 -15 -3 -17 11 -12 11 5 15 3 10 -5
-5 -8 0 -9 15 -5 18 4 20 3 10 -9 -10 -12 -9 -13 5 -8 10 4 18 0 22 -10 3 -9
10 -14 14 -11 5 3 13 -3 19 -12 6 -11 11 -13 11 -5 0 10 3 10 14 0 8 -7 11
-17 8 -23 -2 -5 1 -4 9 2 17 16 33 17 23 1 -5 -8 -2 -9 11 -4 15 5 16 4 6 -8
-10 -12 -9 -14 6 -11 10 1 27 -5 37 -14 11 -9 16 -10 12 -4 -5 9 -2 11 8 7 9
-3 12 -12 8 -22 -5 -14 -3 -15 10 -4 12 10 17 10 26 0 6 -7 11 -16 11 -20 1
-11 11 -11 19 -2 4 4 1 4 -7 -1 -10 -5 -12 -4 -7 4 10 15 26 4 26 -17 0 -13 2
-14 9 -4 7 11 9 11 14 -1 4 -10 13 -13 28 -10 17 5 20 3 14 -7 -6 -10 -3 -12
14 -7 18 4 20 3 10 -9 -10 -12 -9 -13 5 -8 10 4 18 0 22 -11 5 -13 9 -14 15
-3 7 10 9 9 9 -5 0 -12 6 -17 18 -15 9 2 22 -3 29 -12 11 -13 12 -13 13 0 0
10 7 7 21 -10 17 -21 20 -22 15 -5 -5 17 -3 16 15 -5 12 -14 28 -24 35 -22 8
2 14 -2 14 -7 0 -5 9 -8 20 -6 13 3 20 -2 21 -13 0 -11 2 -13 6 -4 3 9 10 7
24 -9 13 -15 19 -17 19 -8 1 8 7 3 15 -11 9 -15 15 -19 15 -10 0 11 4 10 16
-5 15 -20 20 -21 41 -3 9 7 11 5 9 -9 -3 -15 1 -19 25 -17 16 1 26 -2 23 -7
-3 -5 0 -9 6 -9 6 0 8 -5 4 -11 -4 -7 0 -9 14 -5 14 5 24 1 31 -11 6 -10 11
-12 11 -5 0 6 5 12 11 12 5 0 7 -5 3 -11 -5 -8 1 -10 19 -7 15 3 25 1 24 -5
-1 -6 7 -13 18 -15 11 -2 23 -9 28 -16 5 -8 10 -7 17 4 9 14 15 7 11 -14 -1
-5 5 -6 14 -3 8 4 15 1 15 -5 0 -6 3 -8 7 -5 3 4 12 2 20 -4 7 -6 13 -8 13 -5
0 4 8 0 17 -10 16 -15 17 -15 24 2 6 16 8 16 8 3 1 -9 12 -20 26 -23 14 -4 25
-12 25 -19 0 -8 4 -7 10 3 8 13 10 13 10 -2 0 -11 6 -15 20 -11 12 3 20 0 20
-8 0 -7 3 -9 7 -6 3 4 15 0 25 -9 14 -14 20 -14 33 -4 12 10 16 9 21 -4 4 -10
13 -15 20 -12 8 3 14 2 14 -2 0 -13 62 -13 78 0 13 11 14 11 8 0 -7 -11 -4
-12 13 -3 12 7 27 9 34 5 9 -6 9 -4 -1 8 -10 13 -9 15 13 13 14 -2 25 1 25 7
0 7 5 6 14 -1 11 -9 16 -9 22 0 5 8 3 9 -6 4 -9 -5 -11 -4 -6 3 4 7 16 12 27
12 14 0 18 4 13 13 -5 8 -3 8 9 -2 15 -12 18 -10 26 10 9 21 10 22 11 4 0 -16
2 -17 10 -5 5 8 12 11 16 7 4 -4 21 3 38 16 17 13 41 22 53 21 12 -1 20 2 18
6 -2 4 7 12 22 19 22 10 25 10 17 -1 -5 -8 -1 -6 8 4 11 12 19 15 23 8 5 -8
13 -6 25 5 10 9 23 14 29 11 5 -4 14 2 20 11 6 10 11 14 11 9 0 -6 7 -1 16 10
8 10 13 13 9 7 -3 -7 -1 -13 4 -13 6 0 11 5 11 11 0 5 5 7 10 4 6 -3 13 1 16
9 3 9 10 16 16 16 5 0 6 -6 2 -13 -6 -9 -5 -9 8 0 8 7 18 10 22 6 4 -4 4 0 1
8 -5 12 0 16 17 15 25 -2 50 12 43 24 -3 4 2 11 11 14 8 3 12 2 9 -4 -10 -16
5 -11 38 12 17 12 27 17 23 10 -4 -7 -2 -12 4 -12 7 0 14 9 17 21 4 14 8 17
13 9 9 -14 50 4 50 22 0 7 5 6 15 -2 13 -11 14 -10 10 3 -4 8 -1 18 6 23 7 4
10 3 6 -2 -3 -5 3 -10 13 -10 13 0 16 4 9 12 -7 8 -5 11 8 10 11 0 17 5 15 14
-3 12 -1 12 9 3 9 -9 15 -8 26 3 8 8 23 14 33 14 10 0 22 5 26 12 5 7 3 8 -6
3 -9 -5 -11 -4 -6 4 4 6 12 9 17 5 6 -3 17 2 25 12 9 11 13 14 10 7 -4 -6 -2
-14 4 -18 5 -3 10 1 10 9 0 9 9 16 21 16 11 0 17 5 14 10 -4 6 -11 7 -17 4 -6
-4 -8 -2 -4 4 4 7 17 8 37 2 28 -8 29 -8 17 7 -11 14 -11 16 1 9 7 -5 16 -5
20 0 11 16 52 35 61 29 6 -4 10 -1 10 5 0 7 7 10 15 6 11 -4 15 1 15 17 0 17
2 19 9 8 8 -12 13 -12 35 3 14 9 26 23 26 32 0 8 5 12 11 9 6 -4 17 1 25 11
13 16 15 16 10 2 -4 -15 -3 -15 24 0 16 9 26 21 23 26 -4 5 1 7 11 3 14 -6 17
-3 12 9 -5 14 -4 15 9 4 12 -10 15 -10 15 0 0 7 7 10 15 6 13 -5 14 -2 4 15
-10 19 -9 20 11 9 12 -6 24 -9 28 -6 3 3 -1 6 -9 6 -10 1 -9 4 4 11 9 5 22 7
27 4 6 -3 10 1 10 9 0 10 7 13 21 11 18 -4 19 -2 7 12 -9 12 -9 15 0 9 6 -4
12 -3 12 2 0 6 7 13 16 16 15 6 15 4 3 -11 -9 -12 -4 -10 15 5 15 12 33 19 40
15 6 -4 4 2 -4 12 -14 17 -14 18 10 5 24 -13 24 -12 10 5 -9 11 -10 16 -2 11
7 -4 12 -2 12 4 0 6 5 8 10 5 6 -3 10 0 10 7 0 9 3 9 10 -2 8 -13 10 -13 10 1
0 10 7 16 18 15 11 0 16 6 16 17 -1 12 2 15 10 8 11 -9 40 12 30 22 -3 3 6 4
20 3 14 -2 24 2 23 8 -1 6 3 10 10 9 7 -2 10 3 7 11 -4 9 2 13 20 11 15 -2 24
1 20 6 -3 5 -11 6 -17 3 -7 -4 -8 -3 -4 2 9 9 13 10 45 13 15 1 15 3 2 12 -12
9 -11 10 7 6 13 -3 21 0 20 6 -1 6 6 13 17 15 13 3 16 0 11 -9 -5 -7 -4 -10 3
-5 6 4 9 13 5 22 -3 8 -1 14 5 12 6 -2 18 6 27 17 9 11 14 15 11 9 -3 -6 1
-11 9 -11 7 0 12 8 10 18 -2 11 1 16 9 13 7 -3 18 5 25 18 6 13 9 15 7 6 -3
-10 0 -20 6 -24 7 -4 8 -3 4 4 -4 7 -2 12 4 12 6 0 8 5 4 12 -5 8 -2 9 11 4
16 -6 16 -4 4 11 -12 15 -12 16 4 10 12 -4 17 -1 18 11 0 10 3 12 6 5 2 -7 9
-13 14 -13 6 0 7 4 4 10 -3 5 0 10 7 10 8 0 23 7 34 16 18 14 18 15 -6 4 -24
-11 -24 -11 -5 5 11 9 28 14 37 12 10 -3 16 0 15 7 -1 6 6 10 15 10 11 -1 15
5 13 17 -3 12 1 16 11 12 7 -3 17 2 20 11 3 9 12 16 20 16 8 0 14 4 14 10 0 5
-8 7 -17 3 -10 -3 -15 -3 -12 1 11 11 49 15 49 5 0 -6 6 -7 13 -2 19 12 37 12
37 1 0 -7 5 -7 13 1 8 6 17 8 20 4 4 -3 7 -2 7 4 0 6 9 9 22 5 15 -3 19 -2 14
7 -9 14 16 11 26 -4 5 -6 8 -5 8 2 0 7 7 10 16 6 9 -3 20 0 25 8 6 10 9 10 9
2 0 -7 5 -13 11 -13 5 0 8 4 5 9 -3 5 3 11 14 14 11 3 20 0 20 -5 0 -7 4 -7
13 -1 6 6 20 9 29 8 10 -2 21 2 25 7 4 7 1 8 -7 3 -9 -5 -11 -4 -6 3 5 9 13 9
27 2 11 -6 25 -8 32 -3 6 4 18 8 27 9 8 2 24 5 35 8 11 2 24 5 28 5 5 1 5 6 1
12 -4 8 0 8 15 0 13 -7 21 -8 21 -2 0 5 17 9 39 8 30 -2 37 1 33 12 -4 9 -1
12 7 7 7 -5 18 0 27 10 9 11 12 12 8 4 -7 -13 -5 -13 9 -2 9 8 22 10 29 6 7
-4 10 -4 6 1 -4 4 -2 15 5 24 11 14 10 15 -8 1 -19 -14 -20 -14 -2 6 9 11 14
24 10 28 -4 4 -1 5 7 1 13 -4 15 12 15 104 0 60 -4 107 -8 104 -5 -3 -4 4 2
16 9 16 9 21 -1 21 -9 0 -10 3 -2 8 13 8 15 42 2 42 -4 0 -8 9 -8 20 0 18 -11
25 -34 21 -5 -1 -6 6 -2 15 5 12 2 15 -10 10 -14 -5 -15 -4 -5 8 10 12 8 13
-11 8 -21 -5 -22 -4 -9 12 12 15 12 17 0 14 -8 -2 -13 2 -12 9 2 7 -4 10 -12
7 -10 -4 -13 0 -10 14 2 13 -3 22 -16 25 -11 3 -19 14 -19 27 0 14 -5 20 -13
17 -8 -3 -14 1 -14 9 0 7 5 11 11 8 6 -3 2 2 -8 10 -15 12 -16 16 -5 16 12 0
12 2 -1 10 -13 8 -12 11 5 25 11 9 14 14 8 10 -8 -4 -13 0 -13 9 0 10 7 13 21
11 17 -4 19 -2 9 10 -10 12 -9 15 5 15 15 0 16 2 4 17 -10 11 -10 14 -1 9 7
-4 12 -1 12 9 0 10 5 13 13 9 7 -5 7 -2 -2 10 -8 9 -10 16 -5 15 5 -1 16 -1
24 0 13 1 13 2 0 11 -13 9 -12 12 4 25 14 11 16 15 5 15 -12 0 -12 2 1 10 8 5
11 10 7 10 -5 0 0 16 12 36 12 19 17 32 11 29 -5 -3 -10 -1 -10 4 0 6 5 11 10
11 6 0 10 9 10 21 0 13 -4 18 -12 13 -10 -6 -10 -4 -2 7 7 8 12 58 12 124 0
95 5 150 12 150 9 0 5 133 -4 144 -7 10 -8 13 0 8 7 -4 10 28 10 104 -1 60 -4
109 -8 109 -3 0 -4 9 -1 20 3 11 1 20 -3 20 -13 0 -5 133 8 141 6 4 7 12 4 18
-4 6 -2 11 3 11 6 0 10 3 9 8 -1 4 2 18 6 31 6 16 4 26 -5 32 -9 5 -10 9 -3 9
7 0 15 7 18 16 4 10 2 13 -7 8 -6 -4 -4 2 6 13 9 11 14 23 10 27 -4 4 -1 11 7
16 10 7 11 10 3 10 -7 0 -13 5 -13 11 0 5 4 8 9 5 14 -9 21 20 8 33 -8 8 -8
11 0 11 6 0 10 8 9 18 -2 9 4 23 13 30 9 8 10 11 4 7 -7 -3 -13 -1 -13 4 0 6
6 11 13 11 8 0 7 4 -3 10 -13 8 -12 10 4 10 15 0 16 3 6 15 -7 8 -8 15 -2 15
13 0 23 38 11 46 -5 3 -3 15 4 27 7 12 12 31 12 42 0 11 4 23 10 27 7 5 7 8 0
8 -9 0 -10 16 -6 63 1 5 5 6 9 3 4 -2 7 8 6 22 0 15 4 30 10 34 7 5 7 8 -2 8
-7 0 -10 5 -7 10 4 6 10 8 13 6 4 -2 7 19 6 47 0 29 4 58 10 66 9 12 8 13 -4
6 -12 -7 -13 -6 -3 7 7 8 10 18 6 21 -3 4 -1 7 5 7 7 0 11 3 11 8 -4 25 2 42
14 36 8 -5 8 -2 -2 9 -7 9 -10 17 -5 17 11 0 11 90 1 108 -5 7 -3 12 3 12 7 0
10 6 7 14 -3 7 0 19 6 26 9 10 9 11 0 6 -9 -5 -11 -2 -7 8 3 9 9 16 13 16 3 0
5 25 4 55 -1 33 3 55 9 55 5 0 8 7 4 15 -3 8 0 15 7 15 8 0 8 3 -2 9 -7 5 -9
11 -4 14 5 3 6 33 3 66 -3 32 -2 57 2 55 3 -2 9 0 13 6 3 5 1 10 -6 10 -8 0
-8 4 1 15 7 8 10 24 7 35 -3 11 -2 20 3 20 4 0 4 15 0 34 -6 26 -4 33 5 30 9
-4 12 7 11 38 -1 24 1 65 5 91 3 26 2 50 -3 53 -5 3 -5 11 0 17 5 7 8 20 7 30
-2 9 1 14 7 11 6 -4 7 7 4 30 -4 25 -2 36 7 36 7 0 8 3 2 8 -13 10 -14 225 0
234 6 5 6 8 0 8 -5 0 -10 24 -10 54 0 34 4 52 11 49 14 -5 14 70 0 79 -8 6 -8
8 0 8 12 0 13 98 2 116 -4 6 -4 14 0 18 11 12 10 166 -1 159 -6 -4 -7 -1 -1 8
13 20 13 163 0 171 -8 6 -8 8 0 8 12 0 13 98 2 116 -4 6 -4 14 0 18 11 12 10
166 -1 159 -6 -4 -7 -1 -1 8 13 20 13 163 0 171 -8 6 -8 8 0 8 12 0 13 98 2
116 -4 6 -4 14 0 18 11 12 10 166 -1 159 -6 -4 -7 -1 -1 8 13 20 13 163 0 171
-8 6 -8 8 0 8 12 0 13 78 2 96 -4 6 -4 14 0 18 4 4 7 20 8 35 0 15 4 33 9 40
5 10 4 12 -4 7 -8 -5 -10 1 -6 23 3 20 1 31 -6 31 -6 0 -9 9 -6 20 3 11 1 20
-5 20 -5 0 -6 10 -3 21 5 15 4 19 -5 14 -7 -4 -11 -1 -9 6 3 28 -1 40 -13 33
-7 -4 -10 -3 -5 1 4 5 -1 17 -10 28 -13 15 -14 18 -3 13 8 -4 4 2 -10 14 -14
12 -19 19 -12 15 21 -11 13 6 -14 27 -15 13 -23 26 -19 36 5 13 3 13 -11 1
-16 -13 -16 -12 -5 9 12 22 11 23 -8 13 -14 -8 -22 -8 -27 1 -4 7 -3 8 4 4 7
-4 12 -3 12 3 0 5 -9 12 -19 16 -11 3 -23 15 -27 27 -5 16 -8 18 -15 7 -7 -11
-11 -10 -22 5 -8 11 -19 16 -25 12 -7 -4 -12 -2 -12 5 0 7 -3 9 -7 6 -3 -4
-15 1 -26 10 -11 10 -17 12 -13 6 4 -7 3 -13 -2 -13 -6 0 -13 7 -16 17 -6 14
-8 14 -22 -3 -9 -10 -13 -14 -10 -8 8 16 -15 32 -42 29 -13 -1 -26 5 -29 12
-5 12 -7 12 -14 1 -7 -10 -9 -10 -9 0 0 6 -7 12 -15 12 -8 0 -15 6 -15 13 0 8
-4 7 -10 -3 -8 -13 -10 -12 -10 3 0 10 -5 15 -10 12 -6 -4 -17 -2 -24 4 -7 6
-25 12 -40 13 -14 1 -26 7 -26 12 0 5 -3 6 -7 3 -3 -4 -17 0 -31 9 -17 11 -22
12 -17 3 6 -11 5 -12 -6 -1 -7 6 -19 12 -27 12 -8 0 -21 8 -29 18 -8 9 -12 12
-9 6 3 -7 -1 -15 -10 -18 -8 -3 -13 -2 -10 3 3 5 -2 15 -11 22 -14 12 -16 12
-9 -1 6 -12 4 -11 -6 1 -7 9 -19 14 -25 12 -7 -3 -13 1 -13 7 0 10 -3 10 -14
1 -11 -9 -16 -9 -22 0 -5 8 -3 9 6 4 8 -5 11 -4 7 3 -4 5 -17 8 -29 4 -12 -3
-19 -1 -15 4 3 6 -4 11 -15 11 -12 1 -25 7 -29 14 -4 6 -16 9 -28 6 -12 -3
-19 -1 -16 3 3 5 1 11 -5 15 -5 3 -10 0 -10 -7 0 -8 -5 -6 -11 5 -5 9 -15 17
-20 17 -6 0 -8 -4 -5 -9 10 -15 -22 -6 -42 12 -14 13 -21 14 -31 4 -7 -6 -12
-7 -11 -2 5 24 -1 33 -20 28 -12 -3 -20 0 -20 6 0 7 -4 10 -9 7 -5 -3 -12 1
-15 10 -5 13 -9 14 -21 4 -11 -9 -15 -9 -15 -1 0 7 -4 9 -10 6 -5 -3 -10 0
-10 7 0 9 -3 9 -10 -2 -7 -12 -10 -12 -10 -1 0 8 -6 11 -16 7 -8 -3 -13 -2
-10 2 3 4 -4 14 -16 21 -11 7 -18 8 -14 3 3 -5 -1 -9 -9 -9 -8 0 -14 3 -13 6
2 19 -4 24 -12 11 -7 -11 -10 -11 -10 -2 0 7 -4 10 -10 7 -5 -3 -10 -1 -10 4
0 6 -7 11 -15 11 -8 0 -15 6 -15 13 0 8 -4 7 -10 -3 -6 -10 -10 -11 -10 -2 0
6 -9 12 -20 12 -11 0 -20 5 -20 12 0 6 -3 8 -7 5 -3 -4 -17 0 -29 8 -13 8 -29
12 -37 9 -8 -3 -18 0 -23 7 -5 8 -3 10 7 4 8 -5 10 -4 6 0 -10 12 -39 16 -32
5 3 -4 -6 -3 -20 3 -14 7 -25 16 -25 21 0 5 -7 3 -15 -4 -11 -9 -15 -9 -15 -1
0 7 -5 9 -10 6 -6 -4 -10 -3 -9 2 4 20 -2 24 -18 12 -10 -7 -15 -9 -11 -5 4 5
0 15 -10 22 -13 9 -20 10 -31 1 -12 -9 -13 -9 -7 1 4 7 2 12 -8 12 -8 0 -17 6
-19 13 -4 8 -6 8 -6 -2 -1 -11 -5 -10 -16 5 -9 12 -14 14 -15 6 0 -7 -5 -10
-10 -7 -6 4 -7 11 -4 17 4 6 2 8 -4 5 -13 -9 -44 2 -37 13 2 4 -6 6 -20 5 -14
-2 -26 3 -29 12 -5 12 -9 13 -20 4 -11 -9 -15 -8 -20 5 -4 10 -12 14 -23 10
-11 -5 -23 1 -34 15 -12 16 -18 19 -24 9 -6 -9 -4 -11 5 -5 9 6 11 4 5 -4 -5
-9 -12 -7 -26 8 -11 12 -26 21 -34 21 -8 0 -15 6 -15 13 0 9 -2 9 -9 -1 -7
-11 -11 -11 -22 1 -8 7 -20 12 -28 9 -8 -3 -11 0 -7 6 3 6 1 14 -5 18 -7 4 -9
3 -5 -4 4 -7 -1 -10 -14 -9 -11 1 -20 8 -20 17 0 13 -1 13 -10 0 -7 -12 -10
-12 -10 -1 0 7 -6 11 -14 8 -8 -3 -23 3 -34 14 -14 12 -23 15 -28 8 -4 -7 -14
-3 -28 13 -11 13 -16 17 -11 9 8 -12 7 -12 -11 -3 -12 6 -25 8 -29 4 -5 -4 -5
-2 -1 5 3 6 2 14 -4 18 -5 3 -10 0 -10 -7 -1 -8 -4 -7 -10 4 -7 10 -17 14 -32
10 -14 -3 -19 -1 -14 6 5 8 2 10 -9 6 -9 -4 -21 1 -29 11 -7 10 -18 15 -24 11
-6 -3 -13 -2 -17 3 -3 5 -14 8 -25 6 -12 -2 -18 0 -15 4 2 5 -2 14 -10 21 -12
10 -18 10 -31 0 -13 -11 -16 -10 -21 9 -5 20 -6 20 -19 4 -13 -17 -14 -17 -8
0 5 13 1 17 -15 17 -12 0 -21 5 -21 11 0 5 -4 8 -9 4 -5 -3 -16 2 -24 10 -12
11 -17 12 -20 2 -4 -9 -6 -9 -6 1 -1 6 -8 12 -17 12 -9 0 -12 5 -8 12 4 6 3 8
-4 4 -12 -7 -81 22 -100 44 -8 8 -11 9 -7 3 3 -7 1 -13 -4 -13 -6 0 -11 8 -12
18 0 14 -2 14 -9 -3 -8 -18 -9 -18 -9 -2 -1 10 -5 15 -11 12 -5 -3 -10 0 -10
7 0 11 -2 10 -9 0 -6 -11 -10 -10 -15 3 -3 10 -12 15 -21 11 -10 -3 -15 1 -15
11 0 13 -3 14 -12 5 -7 -7 -17 -12 -22 -12 -6 0 -5 4 2 9 10 6 4 12 -20 20
-49 19 -63 28 -61 40 2 6 -3 8 -11 5 -7 -3 -20 2 -29 10 -12 12 -17 13 -20 3
-4 -9 -6 -9 -6 1 -1 6 -10 12 -22 12 -11 0 -17 5 -14 10 3 6 -1 10 -10 10 -10
0 -13 5 -9 13 5 8 2 8 -9 -2 -15 -12 -17 -11 -17 4 0 14 -3 15 -15 5 -13 -11
-14 -10 -9 4 5 12 2 15 -12 9 -12 -4 -15 -3 -9 6 6 10 3 11 -14 2 -16 -9 -20
-9 -15 2 3 9 -4 13 -25 13 -17 0 -28 -3 -25 -8z m-2016 -853 c-7 -9 -15 -13
-19 -10 -3 3 1 10 9 15 21 14 24 12 10 -5z m-233 -6650 c0 -8 -4 -12 -9 -9 -5
3 -6 10 -3 15 9 13 12 11 12 -6z m178 -133 c-3 -3 -11 0 -18 7 -9 10 -8 11 6
5 10 -3 15 -9 12 -12z m175 -124 c0 -6 -6 -5 -15 2 -8 7 -15 14 -15 16 0 2 7
1 15 -2 8 -4 15 -11 15 -16z m400 -239 c0 -6 -4 -7 -10 -4 -5 3 -10 11 -10 16
0 6 5 7 10 4 6 -3 10 -11 10 -16z m2880 -118 c0 -5 -7 -12 -16 -15 -14 -5 -15
-4 -4 9 14 17 20 19 20 6z m-480 -245 c0 -2 -7 -7 -16 -10 -8 -3 -12 -2 -9 4
6 10 25 14 25 6z"/>
<path d="M7655 7380 c3 -5 8 -10 11 -10 2 0 4 5 4 10 0 6 -5 10 -11 10 -5 0
-7 -4 -4 -10z"/>
<path d="M2230 1099 c0 -5 5 -7 10 -4 6 3 10 8 10 11 0 2 -4 4 -10 4 -5 0 -10
-5 -10 -11z"/>
</g>
</svg>
